<?xml version="1.0" encoding="UTF-8" standalone="no"?>
<!-- Created with Inkscape (http://www.inkscape.org/) -->

<svg
   width="226.32898mm"
   height="152.30148mm"
   viewBox="0 0 226.32898 152.30148"
   version="1.1"
   id="svg1"
   xml:space="preserve"
   inkscape:version="1.4 (86a8ad7, 2024-10-11)"
   sodipodi:docname="LOGO.svg"
   inkscape:export-filename="mechanics-logo.png"
   inkscape:export-xdpi="96"
   inkscape:export-ydpi="96"
   xmlns:inkscape="http://www.inkscape.org/namespaces/inkscape"
   xmlns:sodipodi="http://sodipodi.sourceforge.net/DTD/sodipodi-0.dtd"
   xmlns="http://www.w3.org/2000/svg"
   xmlns:svg="http://www.w3.org/2000/svg"><sodipodi:namedview
     id="namedview1"
     pagecolor="#ffffff"
     bordercolor="#000000"
     borderopacity="0.25"
     inkscape:showpageshadow="2"
     inkscape:pageopacity="0.0"
     inkscape:pagecheckerboard="0"
     inkscape:deskcolor="#d1d1d1"
     inkscape:document-units="mm"
     inkscape:zoom="0.57487311"
     inkscape:cx="317.46136"
     inkscape:cy="173.08167"
     inkscape:window-width="1920"
     inkscape:window-height="1009"
     inkscape:window-x="-8"
     inkscape:window-y="-8"
     inkscape:window-maximized="1"
     inkscape:current-layer="svg1" /><defs
     id="defs1"><filter
       style="color-interpolation-filters:sRGB"
       id="filter17"
       inkscape:label="Filter2"
       x="0"
       y="0"
       width="1"
       height="1" /><filter
       inkscape:label="Refractive Glass"
       inkscape:menu-tooltip="Double reflection through glass with some refraction"
       inkscape:menu="Non-Realistic 3D Shaders"
       height="1.3797594"
       y="-0.18987969"
       width="1.2435732"
       x="-0.12178661"
       style="color-interpolation-filters:sRGB"
       id="filter29"><feGaussianBlur
         stdDeviation="5"
         result="result8"
         in="SourceGraphic"
         id="feGaussianBlur23" /><feComposite
         in="result8"
         in2="result8"
         operator="xor"
         result="result18"
         id="feComposite23" /><feComposite
         in="result8"
         k1="1"
         k2="0.5"
         operator="arithmetic"
         result="result16"
         in2="result18"
         id="feComposite24"
         k3="0"
         k4="0" /><feComposite
         in2="result8"
         result="result6"
         operator="atop"
         in="result16"
         id="feComposite25" /><feOffset
         result="result17"
         in="result6"
         id="feOffset25" /><feDisplacementMap
         in2="result16"
         in="result17"
         xChannelSelector="A"
         yChannelSelector="A"
         scale="100"
         result="result4"
         id="feDisplacementMap25" /><feComposite
         in2="result4"
         result="result2"
         operator="arithmetic"
         in="result17"
         k3="1"
         id="feComposite26"
         k1="0"
         k2="0"
         k4="0" /><feComposite
         in2="result17"
         result="fbSourceGraphic"
         in="result2"
         operator="out"
         id="feComposite27" /><feComposite
         in="fbSourceGraphic"
         in2="fbSourceGraphic"
         operator="over"
         result="result14"
         id="feComposite28" /><feComposite
         result="result15"
         in2="SourceGraphic"
         operator="in"
         in="result14"
         id="feComposite29" /></filter><filter
       inkscape:label="Film Grain"
       inkscape:menu="Image Effects"
       inkscape:menu-tooltip="Adds a small scale graininess"
       style="color-interpolation-filters:sRGB"
       id="filter36"
       x="0"
       y="0"
       width="1"
       height="1"><feTurbulence
         type="fractalNoise"
         numOctaves="4"
         baseFrequency="0.997"
         seed="0"
         result="result0"
         id="feTurbulence35" /><feColorMatrix
         result="result4"
         values="0"
         type="saturate"
         id="feColorMatrix35" /><feComposite
         in="SourceGraphic"
         in2="result4"
         operator="arithmetic"
         k1="1.25"
         k2="0.5"
         k3="0.5"
         result="result2"
         id="feComposite35"
         k4="0" /><feBlend
         result="result5"
         mode="luminosity"
         in="result2"
         in2="SourceGraphic"
         id="feBlend35" /><feComposite
         in="result5"
         in2="SourceGraphic"
         operator="in"
         result="result3"
         id="feComposite36" /></filter><filter
       inkscape:menu-tooltip="In and out glow with a possible offset and colorizable flood"
       inkscape:menu="Shadows and Glows"
       inkscape:label="Cutout Glow"
       style="color-interpolation-filters:sRGB"
       id="filter37"
       x="-0.02790943"
       y="-0.037975895"
       width="1.0522668"
       height="1.0917751"><feOffset
         dy="1"
         dx="-0.34999999999999964"
         id="feOffset36"
         preserveAlpha="false" /><feGaussianBlur
         stdDeviation="1 1"
         result="blur"
         id="feGaussianBlur36" /><feFlood
         flood-color="rgb(76,80,139)"
         flood-opacity="0.61349693251533743"
         result="flood"
         id="feFlood36" /><feComposite
         in="flood"
         in2="SourceGraphic"
         operator="arithmetic"
         result="composite"
         id="feComposite37"
         flood-opacity="0.28999999999999998"
         k1="0"
         k2="0"
         k3="0"
         k4="0" /><feBlend
         in="blur"
         in2="composite"
         mode="normal"
         id="feBlend37" /></filter><filter
       inkscape:label="3D Wood"
       inkscape:menu="Materials"
       inkscape:menu-tooltip="3D warped, fibered wood texture"
       style="color-interpolation-filters:sRGB"
       id="filter36-3"
       x="-0.41407473"
       y="-0.64559012"
       width="1.8281495"
       height="2.2911802"><feTurbulence
         type="fractalNoise"
         numOctaves="4"
         baseFrequency="0.997"
         seed="0"
         result="result0"
         id="feTurbulence35-2" /><feColorMatrix
         result="result4"
         values="0"
         type="saturate"
         id="feColorMatrix35-2" /><feComposite
         in="SourceGraphic"
         in2="result4"
         operator="arithmetic"
         k1="1.25"
         k2="0.5"
         k3="0.5"
         result="result2"
         id="feComposite35-1"
         k4="0" /><feBlend
         result="result5"
         mode="luminosity"
         in="result2"
         in2="SourceGraphic"
         id="feBlend35-6" /><feComposite
         in="result5"
         in2="SourceGraphic"
         operator="in"
         result="fbSourceGraphic"
         id="feComposite36-8" /><feColorMatrix
         result="fbSourceGraphicAlpha"
         in="fbSourceGraphic"
         values="0 0 0 -1 0 0 0 0 -1 0 0 0 0 -1 0 0 0 0 1 0"
         id="feColorMatrix37" /><feGaussianBlur
         id="feGaussianBlur37"
         stdDeviation="5"
         result="result3"
         in="fbSourceGraphic" /><feColorMatrix
         id="feColorMatrix38"
         values="1 0 0 0 0 0 1 0 0 0 0 0 1 0 0 0 0 0 50 0 "
         result="result7" /><feComposite
         id="feComposite38"
         operator="in"
         in2="fbSourceGraphic"
         result="result9" /><feComposite
         id="feComposite39"
         in2="result7"
         operator="arithmetic"
         in="result9"
         k1="0.5"
         k3="0.5"
         result="result1"
         k2="0"
         k4="0" /><feBlend
         id="feBlend39"
         in2="result1"
         result="result5"
         mode="screen"
         in="fbSourceGraphic" /><feBlend
         id="feBlend40"
         in2="result5"
         mode="darken"
         in="result5"
         result="result6" /><feComposite
         id="feComposite40"
         in2="fbSourceGraphic"
         operator="in"
         result="fbSourceGraphic" /><feColorMatrix
         result="fbSourceGraphicAlpha"
         in="fbSourceGraphic"
         values="0 0 0 -1 0 0 0 0 -1 0 0 0 0 -1 0 0 0 0 1 0"
         id="feColorMatrix40" /><feGaussianBlur
         id="feGaussianBlur40"
         result="result8"
         stdDeviation="4"
         in="fbSourceGraphic" /><feTurbulence
         id="feTurbulence40"
         baseFrequency="0.025 0.2"
         numOctaves="3"
         type="fractalNoise"
         result="result7"
         seed="22" /><feComposite
         id="feComposite41"
         in2="result8"
         operator="in"
         in="fbSourceGraphic"
         result="result6" /><feDisplacementMap
         id="feDisplacementMap41"
         in2="result6"
         result="result4"
         scale="50"
         yChannelSelector="A"
         xChannelSelector="A"
         in="result7" /><feFlood
         id="feFlood41"
         flood-color="rgb(196,196,210)"
         flood-opacity="1" /><feComposite
         id="feComposite42"
         in2="result4"
         operator="atop"
         result="result2" /><feComposite
         id="feComposite43"
         in2="fbSourceGraphic"
         operator="atop"
         in="result2"
         result="result9" /><feGaussianBlur
         id="feGaussianBlur43"
         result="result0"
         in="result9"
         stdDeviation="8" /><feSpecularLighting
         id="feSpecularLighting43"
         specularExponent="15"
         specularConstant="0.69999999"
         surfaceScale="5"
         lighting-color="#ffffff"
         result="result1"
         in="result0"><feDistantLight
           id="feDistantLight43"
           azimuth="235"
           elevation="50" /></feSpecularLighting><feComposite
         id="feComposite44"
         operator="in"
         result="result2"
         in="result1"
         in2="result9" /><feComposite
         id="feComposite45"
         k3="0.5"
         k2="0.5"
         operator="arithmetic"
         result="result4"
         in="result9"
         in2="result2"
         k1="0"
         k4="0" /><feConvolveMatrix
         id="feConvolveMatrix45"
         order="3 3"
         kernelMatrix="2 0 0 0 2 0 0 0 -2 "
         targetX="2"
         targetY="2"
         result="result10" /><feBlend
         id="feBlend45"
         mode="multiply"
         in="result10"
         in2="result10" /></filter></defs><g
     inkscape:label="Ebene 1"
     inkscape:groupmode="layer"
     id="layer1"
     transform="translate(-17.724651,-136.84995)"><g
       id="g1"
       transform="translate(317.97769,0.73605948)"
       style="display:inline" /><path
       style="display:inline;fill:#1f679f"
       d="m 52.022661,265.76456 c -0.98931,-0.39704 -1.44951,-1.89506 -1.24948,-4.06726 0.27804,-3.01926 0.8184,-4.31724 2.49423,-5.9913 1.60769,-1.606 3.26543,-2.36426 5.16884,-2.36426 h 1.08204 l -0.25071,-2.11667 -0.25071,-2.11666 -1.47378,-0.003 c -4.73397,-0.0101 -8.83629,-2.9101 -10.35311,-7.3188 -0.46837,-1.36134 -0.51338,-2.27249 -0.51338,-10.39363 v -8.90147 l -1.52135,-0.31822 c -2.08681,-0.4365 -4.08843,-1.6529 -5.35354,-3.25338 -1.85143,-2.34224 -1.88772,-2.65705 -1.80089,-15.62258 0.0764,-11.40518 0.0804,-11.47899 0.7006,-12.85055 1.13545,-2.51106 3.89608,-4.56519 6.6842,-4.97356 l 1.22255,-0.17907 0.13905,-3.34853 c 0.78818,-18.97993 19.89058,-32.6486 38.28174,-27.39241 8.0823,2.30992 15.090489,8.2015 18.806939,15.81044 1.81038,3.70652 2.64515,7.07027 2.86103,11.52873 l 0.17238,3.55987 1.05833,0.0963 c 2.56298,0.23328 5.37883,2.20339 6.70359,4.69018 l 0.70475,1.32292 v 12.30312 12.30312 l -0.70393,1.33354 c -1.32051,2.50163 -3.99421,4.42143 -6.66811,4.78793 l -1.20227,0.16479 -0.0785,9.42458 -0.0785,9.42458 -0.77831,1.5875 c -0.97503,1.98876 -3.01415,4.05137 -4.91024,4.9668 -1.631589,0.78773 -4.292479,1.29391 -5.646649,1.07416 -1.02244,-0.16592 -1.07236,-0.0681 -1.37331,2.69029 l -0.17319,1.5875 1.28147,0.0563 c 1.8972,0.0834 4.45623,1.47134 5.665069,3.07266 1.25302,1.65983 1.57536,2.69763 1.756,5.65351 l 0.14866,2.43247 -0.80867,0.80867 -0.80867,0.80867 -24.163579,-0.0168 c -14.06452,-0.01 -24.4173,-0.1186 -24.77065,-0.26041 z m 45.88605,-5.03675 c -0.36959,-1.84795 -2.13979,-3.13857 -4.34007,-3.16426 -1.94588,-0.0227 -3.33072,-0.44245 -3.99047,-1.20946 -0.59848,-0.69577 -0.62697,-0.87272 -0.46191,-2.86911 0.0968,-1.17019 0.43982,-3.67543 0.76239,-5.5672 l 0.58649,-3.43958 3.70417,-0.14522 c 4.03368,-0.15813 4.60459,-0.30988 6.097559,-1.62072 1.28144,-1.12512 1.9591,-2.63649 1.96642,-4.38562 l 0.006,-1.38906 h -3.439579 -3.43958 v -2.39596 -2.39596 l 3.44004,0.0808 3.440049,0.0809 -4.7e-4,-21.23281 -4.6e-4,-21.23282 h -25.536199 -25.5362 l 0.0701,25.37729 0.0701,25.37729 0.79375,1.11973 c 0.45495,0.64179 1.40283,1.46206 2.22072,1.92175 1.34631,0.75668 1.62638,0.80877 4.95538,0.92168 l 3.52843,0.11966 0.14105,0.82557 c 0.75561,4.42266 1.19287,7.68933 1.19291,8.91201 5e-5,1.27321 -0.10183,1.56946 -0.75483,2.19508 -0.64656,0.61944 -1.08559,0.75734 -3.05951,0.961 -3.14322,0.32429 -4.58115,1.25182 -5.0282,3.24342 l -0.16332,0.7276 h 21.46936 21.46936 z m -23.517,-7.79937 c -0.10914,-0.11223 -0.19844,-0.89859 -0.19844,-1.74746 0,-1.05696 -0.10424,-1.54422 -0.33073,-1.54599 -0.1819,-10e-4 -0.94285,-0.2876 -1.691,-0.63595 l -1.36028,-0.63336 -0.99688,1.02089 -0.99688,1.0209 -0.71062,-0.50601 c -0.39084,-0.2783 -1.15689,-1.05061 -1.70232,-1.71624 l -0.9917,-1.21024 1.08623,-0.98381 1.08623,-0.9838 -0.59863,-1.48975 -0.59863,-1.48975 -1.50339,-0.13718 c -0.82686,-0.0754 -1.63053,-0.21576 -1.78593,-0.3118 -0.16197,-0.1001 -0.28255,-1.07131 -0.28255,-2.27568 v -2.10105 h 1.85208 c 1.5039,0 1.85208,-0.0778 1.85208,-0.41397 0,-0.22769 0.25715,-1.01173 0.57144,-1.74232 l 0.57144,-1.32834 -1.15692,-0.99641 -1.15692,-0.99642 1.5518,-1.62689 c 0.85349,-0.8948 1.67748,-1.6269 1.8311,-1.6269 0.15361,0 0.70371,0.41443 1.22245,0.92097 l 0.94316,0.92096 1.58154,-0.64143 1.58154,-0.64143 0.0821,-1.39824 c 0.0451,-0.76903 0.22373,-1.48831 0.39688,-1.5984 0.36693,-0.2333 2.34373,-0.22041 3.48981,0.0228 0.73794,0.15657 0.80305,0.26706 0.92604,1.57151 l 0.13229,1.4031 1.58233,0.64139 1.58233,0.64138 1.07882,-1.05877 1.07881,-1.05878 1.63834,1.4826 c 0.90108,0.81544 1.63833,1.64194 1.63833,1.83667 0,0.19473 -0.49272,0.77581 -1.09494,1.29129 -1.03958,0.88983 -1.07505,0.96781 -0.70158,1.54197 0.21635,0.33261 0.53972,1.05122 0.71859,1.59693 l 0.32522,0.99219 h 1.53867 c 1.76845,0 1.86179,0.11085 1.85626,2.20445 -0.006,2.39977 -0.0963,2.52339 -1.90064,2.61229 l -1.58418,0.078 -0.53395,1.54642 -0.53396,1.54643 0.95525,0.97827 c 0.52539,0.53805 0.95526,1.09604 0.95526,1.23998 0,0.14394 -0.72062,0.97236 -1.60139,1.84093 l -1.60138,1.57922 -1.02654,-1.09504 -1.02654,-1.09503 -1.7377,0.68282 -1.7377,0.68282 v 1.38879 c 0,0.76383 -0.0963,1.44831 -0.21406,1.52108 -0.39572,0.24456 -4.14941,0.48565 -4.35,0.27938 z m 3.6652,-8.17896 c 3.37182,-1.00132 4.96098,-4.70484 3.42988,-7.99331 -0.87567,-1.88076 -2.28678,-2.80382 -4.5019,-2.94487 -2.61175,-0.16631 -4.31715,0.92888 -5.45622,3.50394 -1.3024,2.9443 0.40083,6.64471 3.45835,7.51355 1.29892,0.3691 1.58482,0.36172 3.06989,-0.0793 z m -19.92423,-22.08869 c -1.68723,-1.02877 -1.6669,-0.85651 -1.66259,-14.08664 0.003,-9.05603 0.0847,-12.14526 0.33458,-12.63905 0.18188,-0.35943 0.73351,-0.92498 1.22585,-1.25677 l 0.89517,-0.60325 h 17.56416 c 19.36272,0 18.89995,-0.038 19.92164,1.63772 0.51492,0.84457 0.534,1.30626 0.53496,12.94138 l 9.9e-4,12.06556 -0.60326,0.89517 c -0.33179,0.49234 -0.89734,1.04397 -1.25677,1.22585 -0.50323,0.25464 -4.73002,0.33135 -18.3806,0.33359 -17.11897,0.003 -17.75614,-0.0148 -18.57413,-0.51356 z m 34.31684,-7.41905 v -3.43958 h -4.49792 c -4.86216,0 -4.79959,0.0169 -5.84084,-1.57478 -0.41454,-0.63365 -0.4254,-0.62138 -1.92532,2.17493 -1.65889,3.09267 -2.43857,3.89777 -3.77472,3.89777 -1.45687,0 -2.31995,-1.0515 -3.78031,-4.60556 l -1.29446,-3.15035 -0.5667,1.11081 c -1.09638,2.14909 -1.09131,2.14718 -5.7041,2.14718 h -4.10105 v 3.43958 3.43959 h 15.74271 15.74271 z m -14.12793,-7.74439 c 1.3811,-2.72975 1.94851,-3.36811 2.99379,-3.36811 1.25962,0 1.59162,0.24982 2.73231,2.05597 l 1.08679,1.72082 2.37525,-0.1686 c 1.30639,-0.0927 2.95227,-0.1686 3.65752,-0.1686 h 1.28227 v -4.49792 -4.49792 h -15.74271 -15.74271 v 4.63021 4.63021 h 3.1872 3.18719 l 1.09161,-2.3151 c 0.60039,-1.27331 1.33004,-2.583 1.62143,-2.91042 0.65129,-0.73181 1.98133,-0.78961 2.70279,-0.11746 0.2821,0.26283 1.22728,2.22834 2.10041,4.36781 1.8175,4.45354 1.56091,4.40624 3.46686,0.63911 z m 30.761769,9.5216 c 0.51563,-0.31017 1.09851,-0.99268 1.38326,-1.61966 0.45316,-0.99783 0.49211,-1.91067 0.49211,-11.53463 0,-9.62396 -0.0389,-10.53679 -0.49211,-11.53463 -0.50428,-1.11038 -1.66892,-2.01316 -3.002,-2.32705 l -0.7276,-0.17132 v 14.033 14.033 l 0.7276,-0.17132 c 0.40018,-0.0942 1.12862,-0.41255 1.61874,-0.70739 z M 46.676601,203.72733 v -13.89567 l -0.7276,0.17132 c -1.31661,0.31001 -2.40113,1.16362 -2.96915,2.33699 -0.5454,1.12664 -0.55737,1.42179 -0.48179,11.87726 0.0752,10.402 0.094,10.74418 0.631,11.46852 0.73993,0.9981 2.15802,1.93724 2.92521,1.93724 h 0.62233 z m 55.491739,-21.5585 c -0.27529,-6.68243 -2.761169,-12.10791 -7.772269,-16.96314 -3.4599,-3.35229 -7.00476,-5.34907 -11.73613,-6.61083 -3.10234,-0.82734 -8.44784,-0.84146 -11.4235,-0.0302 -4.90497,1.33727 -8.73127,3.5185 -12.34487,7.03735 -4.82118,4.69476 -7.33108,10.22325 -7.64134,16.83138 l -0.14286,3.04271 h 25.59861 25.598609 z m -11.570599,0.5949 c -2.5532,-1.27588 -1.73353,-4.82824 1.11406,-4.82824 2.92967,0 3.58504,3.99484 0.82738,5.0433 -0.85459,0.32491 -0.86269,0.32401 -1.94144,-0.21506 z m -18.94984,-1.62583 c -1.47812,-0.2524 -2.44788,-0.94013 -2.92043,-2.07111 -0.31452,-0.75275 -0.3771,-1.96919 -0.30863,-5.99869 0.0955,-5.61944 0.27323,-6.31136 1.88467,-7.33657 0.80628,-0.51296 1.11447,-0.53097 6.4033,-0.37409 8.3932,0.24896 8.33333,0.19228 8.33396,7.8902 4.5e-4,5.38936 -0.14669,6.138 -1.44134,7.33369 -0.70842,0.65426 -0.7714,0.6619 -5.78879,0.70209 -2.78992,0.0224 -5.56315,-0.0431 -6.16274,-0.14552 z m 7.91114,-5.27106 c 0.79858,-0.79858 0.85194,-0.96889 0.85194,-2.71926 0,-1.81846 -0.0259,-1.89103 -0.9883,-2.77304 -0.89978,-0.82458 -1.13312,-0.90571 -2.60501,-0.90571 -2.66152,0 -3.95081,1.18117 -3.94342,3.6127 0.005,1.59872 0.4073,2.41388 1.58746,3.21556 0.78429,0.53276 1.17065,0.61112 2.58379,0.52406 1.45033,-0.0894 1.76992,-0.21069 2.51354,-0.95431 z"
       id="path1"
       sodipodi:nodetypes="csssccccsscssssscsssscsscccsscccsssscssscccccccsssscssccccccccccccccssscsssssccccsscscccssccccccsscssscccsssccccssscccccssssscscccccssscccccsssssssssssscsscssscsscsccssssscssccccccsssccscccccccccsssssssssscccssccsssssccsssssscccssssscssssssccsssscscs" /></g><g
     inkscape:groupmode="layer"
     id="layer2"
     inkscape:label="Ebene 2"
     transform="translate(-17.724651,-136.84995)" /><g
     id="g49"
     transform="translate(19.326357,-16.380996)"><path
       d="m 119.17158,143.72966 c -1.96997,-0.72589 -3.03975,-2.547 -3.03975,-5.17463 0,-2.48761 1.07378,-4.46554 2.82046,-5.19535 1.13461,-0.47407 3.3605,-0.46037 4.30196,0.0265 1.58103,0.81759 2.6592,2.77659 2.66273,4.83815 l 0.002,0.8599 h -3.73724 -3.73724 l 0.17178,0.85989 c 0.41897,2.09739 2.97313,2.96316 4.27538,1.4492 0.48571,-0.56467 0.8536,-0.72159 1.69171,-0.72159 1.17214,0 1.2654,0.17957 0.68057,1.31051 -0.87487,1.6918 -3.89317,2.55761 -6.09183,1.74745 z m 4.36563,-6.74183 c 0,-0.27988 -0.30824,-0.87519 -0.68498,-1.32292 -0.54677,-0.6498 -0.8908,-0.81405 -1.70504,-0.81405 -1.19679,0 -2.2633,0.81071 -2.52349,1.91823 l -0.17094,0.72761 h 2.54222 c 2.33203,0 2.54223,-0.0421 2.54223,-0.50887 z m 7.12088,6.88599 c -2.23709,-0.72833 -3.25163,-2.38067 -3.26704,-5.32091 -0.009,-1.70583 0.0935,-2.16381 0.72512,-3.24159 1.01273,-1.72809 2.36625,-2.40368 4.53862,-2.26535 2.31173,0.1472 3.54739,1.11927 4.22819,3.32625 0.1714,0.55563 0.10523,0.59531 -0.99272,0.59531 -1.0609,0 -1.20903,-0.0789 -1.50932,-0.80386 -0.18314,-0.44213 -0.54694,-0.91838 -0.80846,-1.05834 -0.53901,-0.28847 -1.84259,-0.33578 -2.48279,-0.0901 -1.31022,0.50278 -1.83441,4.68161 -0.76715,6.11573 0.44885,0.60312 0.77803,0.74522 1.87728,0.81033 1.17852,0.0698 1.39771,-0.003 1.89144,-0.631 0.30715,-0.39047 0.55845,-0.87248 0.55845,-1.07114 0,-0.4326 1.99247,-0.51161 2.25344,-0.0894 0.30353,0.49112 -0.93862,2.60042 -1.87056,3.17639 -0.99295,0.61368 -3.28885,0.90111 -4.3745,0.54765 z m 21.35954,-0.0346 c -1.71798,-0.51483 -2.56282,-2.29109 -1.95846,-4.11767 0.47831,-1.44563 1.46438,-1.92427 4.39244,-2.13211 2.27348,-0.16137 2.4231,-0.20819 2.4231,-0.75815 0,-1.04807 -0.97783,-1.98044 -2.077,-1.98044 -1.07396,0 -2.15634,0.60517 -2.15634,1.20563 0,0.2762 -0.32947,0.38187 -1.19062,0.38187 -1.35276,0 -1.49891,-0.32252 -0.73339,-1.61844 0.97777,-1.65522 4.48851,-2.38678 6.61395,-1.37819 1.56885,0.74447 1.91199,1.90728 1.91884,6.50236 l 0.006,3.90261 h -1.05834 c -0.97089,0 -1.05833,-0.0585 -1.05833,-0.70758 v -0.70758 l -0.61909,0.5816 c -1.04819,0.98472 -2.86246,1.31759 -4.50257,0.82609 z m 3.06334,-1.85638 c 1.14687,-0.31851 1.79374,-1.11201 1.79374,-2.20031 v -0.77142 l -1.75834,0.18015 c -2.33995,0.23973 -2.79197,0.50166 -2.68889,1.55812 0.0565,0.57879 0.28526,0.93877 0.74306,1.16914 0.80101,0.40309 0.70258,0.39978 1.91043,0.0643 z m 25.78716,1.7451 c -2.06703,-0.7372 -3.07607,-2.41002 -3.08553,-5.11527 -0.0125,-3.58962 1.77919,-5.6139 4.96901,-5.6139 1.79126,0 2.95095,0.61557 3.94857,2.09594 0.96242,1.42814 0.82257,1.87281 -0.58902,1.87281 -0.8975,0 -1.19062,-0.10067 -1.19062,-0.4089 0,-0.74021 -1.23401,-1.70777 -2.17806,-1.70777 -1.85933,0 -2.75822,1.53984 -2.50824,4.29669 0.18249,2.01253 0.87676,2.84706 2.36856,2.84706 1.34758,0 1.93555,-0.34029 2.27615,-1.31733 0.24821,-0.71203 0.39574,-0.79933 1.35074,-0.79933 0.94921,0 1.0721,0.0713 1.0721,0.62233 0,0.98315 -1.08895,2.36685 -2.3733,3.01569 -1.33229,0.67304 -2.58429,0.73841 -4.06036,0.21198 z m 10.27012,0.0945 c -1.15813,-0.35183 -1.90906,-1.03448 -2.37444,-2.15853 l -0.41079,-0.99218 h 1.17382 c 0.95147,0 1.32418,0.15035 1.96758,0.79375 0.89493,0.89493 1.95914,1.03544 2.89225,0.38187 0.65253,-0.45705 0.76864,-1.22552 0.25019,-1.6558 -0.18582,-0.15422 -1.22206,-0.4815 -2.30276,-0.7273 -2.54011,-0.57774 -3.44481,-1.39244 -3.44481,-3.10212 0,-1.32373 0.63504,-2.33709 1.8623,-2.97173 0.95221,-0.49241 3.43495,-0.50691 4.58406,-0.0268 1.06477,0.44489 2.0203,1.60318 2.0203,2.449 0,0.56527 -0.11511,0.62577 -1.19062,0.62577 -0.82097,0 -1.19063,-0.11049 -1.19063,-0.35587 0,-0.65574 -0.94377,-1.23163 -2.01843,-1.23163 -1.19028,0 -1.68573,0.36276 -1.68573,1.23423 0,0.74959 0.42198,0.96768 2.93969,1.51929 2.54256,0.55705 3.28992,1.23912 3.25237,2.96822 -0.0208,0.95565 -0.19023,1.35077 -0.88829,2.07098 -1.24639,1.28595 -3.48531,1.77147 -5.43606,1.17883 z m -92.20729,-5.39967 v -5.42396 h 0.92605 c 0.89845,0 1.12483,0.32846 0.95737,1.38906 -0.0559,0.3542 0.17795,0.21303 0.98629,-0.59531 0.69552,-0.69552 0.97964,-0.79375 2.29577,-0.79375 1.34661,0 1.5924,0.0904 2.37551,0.87349 l 0.87348,0.87348 0.63735,-0.7916 c 0.566,-0.70299 0.82956,-0.80385 2.35442,-0.90094 1.55711,-0.0991 1.79523,-0.0436 2.55601,0.59658 1.14877,0.96663 1.38039,2.04363 1.38211,6.42659 l 0.001,3.77032 h -1.19063 -1.19062 v -3.84849 c 0,-3.73327 -0.0194,-3.86793 -0.64944,-4.49792 -0.82231,-0.82231 -1.76106,-0.8263 -2.70925,-0.0115 -0.7417,0.63735 -0.74243,0.64133 -0.82802,4.49792 l -0.0857,3.86001 h -1.17111 -1.1711 v -3.84849 c 0,-3.73327 -0.0194,-3.86793 -0.64943,-4.49792 -1.18671,-1.18671 -2.8168,-0.62276 -3.30756,1.14431 -0.15036,0.54141 -0.27405,2.38337 -0.27486,4.09324 l -10e-4,3.10886 h -1.05833 -1.05834 z m 39.6875,-2.24896 v -7.67295 h 1.19062 1.19063 l 0.008,3.10886 c 0.006,2.24145 0.0833,2.97966 0.27773,2.64582 0.77353,-1.32806 3.74775,-1.69428 5.29749,-0.65229 1.28612,0.86475 1.5284,1.85874 1.54555,6.34084 l 0.0149,3.90261 h -1.19063 -1.19062 v -3.55943 c 0,-2.0819 -0.12408,-3.83174 -0.29891,-4.21545 -0.40637,-0.89189 -1.59904,-1.35911 -2.68646,-1.05241 -1.42037,0.40061 -1.77624,1.49299 -1.77672,5.45385 l -4.1e-4,3.37344 h -1.19063 -1.19062 z m 23.01875,2.23299 v -5.43993 l 0.991,0.0821 c 0.86854,0.072 1.00839,0.1802 1.13174,0.87587 0.10705,0.60375 0.18324,0.68623 0.3183,0.34456 0.33014,-0.83517 1.7493,-1.33731 3.43493,-1.21538 1.32133,0.0956 1.68638,0.24116 2.40497,0.95916 l 0.84718,0.84649 0.0836,4.49352 0.0836,4.49353 -1.1419,-8.9e-4 -1.1419,-8.8e-4 v -3.85873 -3.85873 l -0.74236,-0.6383 c -1.17639,-1.0115 -2.9999,-0.71015 -3.59409,0.59394 -0.16878,0.37044 -0.29376,2.15905 -0.29376,4.20416 v 3.55943 h -1.19062 -1.19063 z m 11.82877,0.11669 0.0548,-5.32326 1.06966,-0.0519 1.06967,-0.0519 v 5.37512 5.37513 l -1.12448,1e-5 -1.12448,1e-5 z m -0.0791,-8.03822 c -0.40149,-0.61274 -0.40149,-0.71018 0,-1.32292 0.49832,-0.76054 1.49218,-0.8756 2.1221,-0.24568 0.52314,0.52314 0.52403,0.89941 0.004,1.64202 -0.55749,0.79592 -1.57951,0.76062 -2.126,-0.0734 z M 99.9893,106.56835 c 0,-13.31142 0.0262,-14.0799 0.53651,-15.73206 0.83243,-2.69512 2.81562,-5.08213 5.28432,-6.36034 2.47568,-1.28182 5.39293,-1.86025 10.39836,-2.06175 l 2.06398,-0.0831 0.003,4.10104 0.003,4.10105 -1.141,0.0732 c -4.64658,0.29797 -6.72385,1.05286 -7.75933,2.81977 l -0.65772,1.12231 v 13.00748 13.00748 h -4.36562 -4.36562 z m 20.6375,10.59077 v -3.40428 l 3.63802,-2.89177 c 8.20241,-6.51988 12.52184,-10.68267 14.03978,-13.5306 2.27496,-4.26826 0.87938,-8.62904 -2.87707,-8.98998 -3.07907,-0.29586 -6.05847,2.30623 -6.06801,5.29955 -0.001,0.4222 -0.38631,0.46302 -4.3671,0.46302 h -4.36562 l 0.004,-0.85989 c 0.007,-1.4893 0.7707,-4.18938 1.65635,-5.85434 1.6525,-3.10658 4.85475,-5.49558 8.34078,-6.22255 0.77115,-0.16081 2.73568,-0.29063 4.36562,-0.28847 4.95387,0.007 7.88811,1.02328 10.12133,3.50717 4.10707,4.56805 4.01012,11.53947 -0.24312,17.48263 -1.5208,2.12506 -5.91315,6.36164 -9.5152,9.17776 l -2.86512,2.23998 8.22293,0.0699 8.22293,0.0699 v 3.56811 3.5681 h -14.15521 -14.1552 z"
       style="display:inline;opacity:0.649;mix-blend-mode:normal;fill:#130d0d;fill-opacity:1;filter:url(#filter37)"
       id="path1-5"
       transform="matrix(0.98619889,0,0,0.98619889,-8.7881811,2.6043607)" /><path
       d="m 108.15988,144.28981 c -1.96997,-0.72589 -3.03975,-2.547 -3.03975,-5.17463 0,-2.48761 1.07378,-4.46554 2.82046,-5.19535 1.13461,-0.47407 3.3605,-0.46037 4.30196,0.0265 1.58103,0.81759 2.6592,2.77659 2.66273,4.83815 l 0.002,0.8599 h -3.73724 -3.73724 l 0.17178,0.85989 c 0.41897,2.09739 2.97313,2.96316 4.27538,1.4492 0.48571,-0.56467 0.8536,-0.72159 1.69171,-0.72159 1.17214,0 1.2654,0.17957 0.68057,1.31051 -0.87487,1.6918 -3.89317,2.55761 -6.09183,1.74745 z m 4.36563,-6.74183 c 0,-0.27988 -0.30824,-0.87519 -0.68498,-1.32292 -0.54677,-0.6498 -0.8908,-0.81405 -1.70504,-0.81405 -1.19679,0 -2.2633,0.81071 -2.52349,1.91823 l -0.17094,0.72761 h 2.54222 c 2.33203,0 2.54223,-0.0421 2.54223,-0.50887 z m 7.12088,6.88599 c -2.23709,-0.72833 -3.25163,-2.38067 -3.26704,-5.32091 -0.009,-1.70583 0.0935,-2.16381 0.72512,-3.24159 1.01273,-1.72809 2.36625,-2.40368 4.53862,-2.26535 2.31173,0.1472 3.54739,1.11927 4.22819,3.32625 0.1714,0.55563 0.10523,0.59531 -0.99272,0.59531 -1.0609,0 -1.20903,-0.0789 -1.50932,-0.80386 -0.18314,-0.44213 -0.54694,-0.91838 -0.80846,-1.05834 -0.53901,-0.28847 -1.84259,-0.33578 -2.48279,-0.0901 -1.31022,0.50278 -1.83441,4.68161 -0.76715,6.11573 0.44885,0.60312 0.77803,0.74522 1.87728,0.81033 1.17852,0.0698 1.39771,-0.003 1.89144,-0.631 0.30715,-0.39047 0.55845,-0.87248 0.55845,-1.07114 0,-0.4326 1.99247,-0.51161 2.25344,-0.0894 0.30353,0.49112 -0.93862,2.60042 -1.87056,3.17639 -0.99295,0.61368 -3.28885,0.90111 -4.3745,0.54765 z m 21.35954,-0.0346 c -1.71798,-0.51483 -2.56282,-2.29109 -1.95846,-4.11767 0.47831,-1.44563 1.46438,-1.92427 4.39244,-2.13211 2.27348,-0.16137 2.4231,-0.20819 2.4231,-0.75815 0,-1.04807 -0.97783,-1.98044 -2.077,-1.98044 -1.07396,0 -2.15634,0.60517 -2.15634,1.20563 0,0.2762 -0.32947,0.38187 -1.19062,0.38187 -1.35276,0 -1.49891,-0.32252 -0.73339,-1.61844 0.97777,-1.65522 4.48851,-2.38678 6.61395,-1.37819 1.56885,0.74447 1.91199,1.90728 1.91884,6.50236 l 0.006,3.90261 h -1.05834 c -0.97089,0 -1.05833,-0.0585 -1.05833,-0.70758 v -0.70758 l -0.61909,0.5816 c -1.04819,0.98472 -2.86246,1.31759 -4.50257,0.82609 z m 3.06334,-1.85638 c 1.14687,-0.31851 1.79374,-1.11201 1.79374,-2.20031 v -0.77142 l -1.75834,0.18015 c -2.33995,0.23973 -2.79197,0.50166 -2.68889,1.55812 0.0565,0.57879 0.28526,0.93877 0.74306,1.16914 0.80101,0.40309 0.70258,0.39978 1.91043,0.0643 z m 25.78716,1.7451 c -2.06703,-0.7372 -3.07607,-2.41002 -3.08553,-5.11527 -0.0125,-3.58962 1.77919,-5.6139 4.96901,-5.6139 1.79126,0 2.95095,0.61557 3.94857,2.09594 0.96242,1.42814 0.82257,1.87281 -0.58902,1.87281 -0.8975,0 -1.19062,-0.10067 -1.19062,-0.4089 0,-0.74021 -1.23401,-1.70777 -2.17806,-1.70777 -1.85933,0 -2.75822,1.53984 -2.50824,4.29669 0.18249,2.01253 0.87676,2.84706 2.36856,2.84706 1.34758,0 1.93555,-0.34029 2.27615,-1.31733 0.24821,-0.71203 0.39574,-0.79933 1.35074,-0.79933 0.94921,0 1.0721,0.0713 1.0721,0.62233 0,0.98315 -1.08895,2.36685 -2.3733,3.01569 -1.33229,0.67304 -2.58429,0.73841 -4.06036,0.21198 z m 10.27012,0.0945 c -1.15813,-0.35183 -1.90906,-1.03448 -2.37444,-2.15853 l -0.41079,-0.99218 h 1.17382 c 0.95147,0 1.32418,0.15035 1.96758,0.79375 0.89493,0.89493 1.95914,1.03544 2.89225,0.38187 0.65253,-0.45705 0.76864,-1.22552 0.25019,-1.6558 -0.18582,-0.15422 -1.22206,-0.4815 -2.30276,-0.7273 -2.54011,-0.57774 -3.44481,-1.39244 -3.44481,-3.10212 0,-1.32373 0.63504,-2.33709 1.8623,-2.97173 0.95221,-0.49241 3.43495,-0.50691 4.58406,-0.0268 1.06477,0.44489 2.0203,1.60318 2.0203,2.449 0,0.56527 -0.11511,0.62577 -1.19062,0.62577 -0.82097,0 -1.19063,-0.11049 -1.19063,-0.35587 0,-0.65574 -0.94377,-1.23163 -2.01843,-1.23163 -1.19028,0 -1.68573,0.36276 -1.68573,1.23423 0,0.74959 0.42198,0.96768 2.93969,1.51929 2.54256,0.55705 3.28992,1.23912 3.25237,2.96822 -0.0208,0.95565 -0.19023,1.35077 -0.88829,2.07098 -1.24639,1.28595 -3.48531,1.77147 -5.43606,1.17883 z m -92.207231,-5.39967 v -5.42396 h 0.926047 c 0.898444,0 1.124821,0.32846 0.957364,1.38906 -0.0559,0.3542 0.177947,0.21303 0.986284,-0.59531 0.695517,-0.69552 0.979634,-0.79375 2.295758,-0.79375 1.346611,0 1.592401,0.0904 2.375505,0.87349 l 0.873474,0.87348 0.637347,-0.7916 c 0.565997,-0.70299 0.829557,-0.80385 2.354408,-0.90094 1.557104,-0.0991 1.795224,-0.0436 2.556004,0.59658 1.14877,0.96663 1.38039,2.04363 1.38211,6.42659 l 10e-4,3.77032 h -1.19063 -1.19062 v -3.84849 c 0,-3.73327 -0.0194,-3.86793 -0.64944,-4.49792 -0.822304,-0.82231 -1.761051,-0.8263 -2.709235,-0.0115 -0.741694,0.63735 -0.742424,0.64133 -0.828014,4.49792 l -0.0857,3.86001 h -1.171104 -1.171094 v -3.84849 c 0,-3.73327 -0.0194,-3.86793 -0.649434,-4.49792 -1.186704,-1.18671 -2.816785,-0.62276 -3.307542,1.14431 -0.15036,0.54141 -0.27405,2.38337 -0.27486,4.09324 l -0.001,3.10886 h -1.058324 -1.058334 z m 39.687441,-2.24896 v -7.67295 h 1.19062 1.19063 l 0.008,3.10886 c 0.006,2.24145 0.0833,2.97966 0.27773,2.64582 0.77353,-1.32806 3.74775,-1.69428 5.29749,-0.65229 1.28612,0.86475 1.5284,1.85874 1.54555,6.34084 l 0.0149,3.90261 h -1.19063 -1.19062 v -3.55943 c 0,-2.0819 -0.12408,-3.83174 -0.29891,-4.21545 -0.40637,-0.89189 -1.59904,-1.35911 -2.68646,-1.05241 -1.42037,0.40061 -1.77624,1.49299 -1.77672,5.45385 l -4.1e-4,3.37344 h -1.19063 -1.19062 z m 23.01875,2.23299 v -5.43993 l 0.991,0.0821 c 0.86854,0.072 1.00839,0.1802 1.13174,0.87587 0.10705,0.60375 0.18324,0.68623 0.3183,0.34456 0.33014,-0.83517 1.7493,-1.33731 3.43493,-1.21538 1.32133,0.0956 1.68638,0.24116 2.40497,0.95916 l 0.84718,0.84649 0.0836,4.49352 0.0836,4.49353 -1.1419,-8.9e-4 -1.1419,-8.8e-4 v -3.85873 -3.85873 l -0.74236,-0.6383 c -1.17639,-1.0115 -2.9999,-0.71015 -3.59409,0.59394 -0.16878,0.37044 -0.29376,2.15905 -0.29376,4.20416 v 3.55943 h -1.19062 -1.19063 z m 11.82877,0.11669 0.0548,-5.32326 1.06966,-0.0519 1.06967,-0.0519 v 5.37512 5.37513 l -1.12448,10e-6 -1.12448,1e-5 z m -0.0791,-8.03822 c -0.40149,-0.61274 -0.40149,-0.71018 0,-1.32292 0.49832,-0.76054 1.49218,-0.8756 2.1221,-0.24568 0.52314,0.52314 0.52403,0.89941 0.004,1.64202 -0.55749,0.79592 -1.57951,0.76062 -2.126,-0.0734 z M 88.977653,107.1285 c 0,-13.311428 0.0262,-14.079908 0.536507,-15.732068 0.832427,-2.69512 2.815605,-5.08213 5.2843,-6.36034 2.475668,-1.28182 5.3929,-1.86025 10.39833,-2.06175 l 2.06398,-0.0831 0.003,4.10104 0.003,4.10105 -1.141,0.0732 c -4.64658,0.29797 -6.723844,1.05286 -7.759318,2.81977 l -0.657717,1.12231 v 13.007488 13.00748 h -4.365606 -4.365596 z m 20.637447,10.59077 v -3.40428 l 3.63802,-2.89177 c 8.20241,-6.51988 12.52184,-10.68267 14.03978,-13.530608 2.27496,-4.26826 0.87938,-8.62904 -2.87707,-8.98998 -3.07907,-0.29586 -6.05847,2.30623 -6.06801,5.29955 -0.001,0.4222 -0.38631,0.46302 -4.3671,0.46302 h -4.36562 l 0.004,-0.85989 c 0.007,-1.4893 0.7707,-4.18938 1.65635,-5.85434 1.6525,-3.10658 4.85475,-5.49558 8.34078,-6.22255 0.77115,-0.16081 2.73568,-0.29063 4.36562,-0.28847 4.95387,0.007 7.88811,1.02328 10.12133,3.50717 4.10707,4.56805 4.01012,11.53947 -0.24312,17.482638 -1.5208,2.12506 -5.91315,6.36164 -9.5152,9.17776 l -2.86512,2.23998 8.22293,0.0699 8.22293,0.0699 v 3.56811 3.5681 h -14.15521 -14.1552 z"
       style="display:inline;mix-blend-mode:normal;fill:#000000;fill-opacity:1;filter:url(#filter36)"
       id="path1-5-1" /><g
       id="g48"><g
         id="g47"><path
           d="m 108.1611,144.10325 c -1.96997,-0.72589 -3.03975,-2.547 -3.03975,-5.17463 0,-2.48761 1.07378,-4.46554 2.82046,-5.19535 1.13461,-0.47407 3.3605,-0.46037 4.30196,0.0265 1.58103,0.81759 2.6592,2.77659 2.66273,4.83815 l 0.002,0.8599 h -3.73724 -3.73724 l 0.17178,0.85989 c 0.41897,2.09739 2.97313,2.96316 4.27538,1.4492 0.48571,-0.56467 0.8536,-0.72159 1.69171,-0.72159 1.17214,0 1.2654,0.17957 0.68057,1.31051 -0.87487,1.6918 -3.89317,2.55761 -6.09183,1.74745 z m 4.36563,-6.74183 c 0,-0.27988 -0.30824,-0.87519 -0.68498,-1.32292 -0.54677,-0.6498 -0.8908,-0.81405 -1.70504,-0.81405 -1.19679,0 -2.2633,0.81071 -2.52349,1.91823 l -0.17094,0.72761 h 2.54222 c 2.33203,0 2.54223,-0.0421 2.54223,-0.50887 z m 7.12088,6.88599 c -2.23709,-0.72833 -3.25163,-2.38067 -3.26704,-5.32091 -0.009,-1.70583 0.0935,-2.16381 0.72512,-3.24159 1.01273,-1.72809 2.36625,-2.40368 4.53862,-2.26535 2.31173,0.1472 3.54739,1.11927 4.22819,3.32625 0.1714,0.55563 0.10523,0.59531 -0.99272,0.59531 -1.0609,0 -1.20903,-0.0789 -1.50932,-0.80386 -0.18314,-0.44213 -0.54694,-0.91838 -0.80846,-1.05834 -0.53901,-0.28847 -1.84259,-0.33578 -2.48279,-0.0901 -1.31022,0.50278 -1.83441,4.68161 -0.76715,6.11573 0.44885,0.60312 0.77803,0.74522 1.87728,0.81033 1.17852,0.0698 1.39771,-0.003 1.89144,-0.631 0.30715,-0.39047 0.55845,-0.87248 0.55845,-1.07114 0,-0.4326 1.99247,-0.51161 2.25344,-0.0894 0.30353,0.49112 -0.93862,2.60042 -1.87056,3.17639 -0.99295,0.61368 -3.28885,0.90111 -4.3745,0.54765 z m 21.35954,-0.0346 c -1.71798,-0.51483 -2.56282,-2.29109 -1.95846,-4.11767 0.47831,-1.44563 1.46438,-1.92427 4.39244,-2.13211 2.27348,-0.16137 2.4231,-0.20819 2.4231,-0.75815 0,-1.04807 -0.97783,-1.98044 -2.077,-1.98044 -1.07396,0 -2.15634,0.60517 -2.15634,1.20563 0,0.2762 -0.32947,0.38187 -1.19062,0.38187 -1.35276,0 -1.49891,-0.32252 -0.73339,-1.61844 0.97777,-1.65522 4.48851,-2.38678 6.61395,-1.37819 1.56885,0.74447 1.91199,1.90728 1.91884,6.50236 l 0.006,3.90261 h -1.05834 c -0.97089,0 -1.05833,-0.0585 -1.05833,-0.70758 v -0.70758 l -0.61909,0.5816 c -1.04819,0.98472 -2.86246,1.31759 -4.50257,0.82609 z m 3.06334,-1.85638 c 1.14687,-0.31851 1.79374,-1.11201 1.79374,-2.20031 v -0.77142 l -1.75834,0.18015 c -2.33995,0.23973 -2.79197,0.50166 -2.68889,1.55812 0.0565,0.57879 0.28526,0.93877 0.74306,1.16914 0.80101,0.40309 0.70258,0.39978 1.91043,0.0643 z m 25.78716,1.7451 c -2.06703,-0.7372 -3.07607,-2.41002 -3.08553,-5.11527 -0.0125,-3.58962 1.77919,-5.6139 4.96901,-5.6139 1.79126,0 2.95095,0.61557 3.94857,2.09594 0.96242,1.42814 0.82257,1.87281 -0.58902,1.87281 -0.8975,0 -1.19062,-0.10067 -1.19062,-0.4089 0,-0.74021 -1.23401,-1.70777 -2.17806,-1.70777 -1.85933,0 -2.75822,1.53984 -2.50824,4.29669 0.18249,2.01253 0.87676,2.84706 2.36856,2.84706 1.34758,0 1.93555,-0.34029 2.27615,-1.31733 0.24821,-0.71203 0.39574,-0.79933 1.35074,-0.79933 0.94921,0 1.0721,0.0713 1.0721,0.62233 0,0.98315 -1.08895,2.36685 -2.3733,3.01569 -1.33229,0.67304 -2.58429,0.73841 -4.06036,0.21198 z m 10.27012,0.0945 c -1.15813,-0.35183 -1.90906,-1.03448 -2.37444,-2.15853 l -0.41079,-0.99218 h 1.17382 c 0.95147,0 1.32418,0.15035 1.96758,0.79375 0.89493,0.89493 1.95914,1.03544 2.89225,0.38187 0.65253,-0.45705 0.76864,-1.22552 0.25019,-1.6558 -0.18582,-0.15422 -1.22206,-0.4815 -2.30276,-0.7273 -2.54011,-0.57774 -3.44481,-1.39244 -3.44481,-3.10212 0,-1.32373 0.63504,-2.33709 1.8623,-2.97173 0.95221,-0.49241 3.43495,-0.50691 4.58406,-0.0268 1.06477,0.44489 2.0203,1.60318 2.0203,2.449 0,0.56527 -0.11511,0.62577 -1.19062,0.62577 -0.82097,0 -1.19063,-0.11049 -1.19063,-0.35587 0,-0.65574 -0.94377,-1.23163 -2.01843,-1.23163 -1.19028,0 -1.68573,0.36276 -1.68573,1.23423 0,0.74959 0.42198,0.96768 2.93969,1.51929 2.54256,0.55705 3.28992,1.23912 3.25237,2.96822 -0.0208,0.95565 -0.19023,1.35077 -0.88829,2.07098 -1.24639,1.28595 -3.48531,1.77147 -5.43606,1.17883 z m -92.207226,-5.39967 v -5.42396 h 0.926047 c 0.898444,0 1.124821,0.32846 0.957364,1.38906 -0.0559,0.3542 0.177947,0.21303 0.986284,-0.59531 0.695517,-0.69552 0.979634,-0.79375 2.295763,-0.79375 1.34661,0 1.5924,0.0904 2.3755,0.87349 l 0.87347,0.87348 0.63735,-0.7916 c 0.566,-0.70299 0.82956,-0.80385 2.35441,-0.90094 1.557098,-0.0991 1.795218,-0.0436 2.555998,0.59658 1.14877,0.96663 1.38039,2.04363 1.38211,6.42659 l 10e-4,3.77032 h -1.19063 -1.19062 v -3.84849 c 0,-3.73327 -0.0194,-3.86793 -0.64944,-4.49792 -0.822298,-0.82231 -1.761048,-0.8263 -2.709228,-0.0115 -0.7417,0.63735 -0.74243,0.64133 -0.82802,4.49792 l -0.0857,3.86001 h -1.1711 -1.17109 v -3.84849 c 0,-3.73327 -0.0194,-3.86793 -0.64944,-4.49792 -1.1867,-1.18671 -2.816783,-0.62276 -3.30754,1.14431 -0.15036,0.54141 -0.27405,2.38337 -0.27486,4.09324 l -0.001,3.10886 h -1.058324 -1.058334 z m 39.687436,-2.24896 v -7.67295 h 1.19062 1.19063 l 0.008,3.10886 c 0.006,2.24145 0.0833,2.97966 0.27773,2.64582 0.77353,-1.32806 3.74775,-1.69428 5.29749,-0.65229 1.28612,0.86475 1.5284,1.85874 1.54555,6.34084 l 0.0149,3.90261 h -1.19063 -1.19062 v -3.55943 c 0,-2.0819 -0.12408,-3.83174 -0.29891,-4.21545 -0.40637,-0.89189 -1.59904,-1.35911 -2.68646,-1.05241 -1.42037,0.40061 -1.77624,1.49299 -1.77672,5.45385 l -4.1e-4,3.37344 h -1.19063 -1.19062 z m 23.01875,2.23299 v -5.43993 l 0.991,0.0821 c 0.86854,0.072 1.00839,0.1802 1.13174,0.87587 0.10705,0.60375 0.18324,0.68623 0.3183,0.34456 0.33014,-0.83517 1.7493,-1.33731 3.43493,-1.21538 1.32133,0.0956 1.68638,0.24116 2.40497,0.95916 l 0.84718,0.84649 0.0836,4.49352 0.0836,4.49353 -1.1419,-8.9e-4 -1.1419,-8.8e-4 v -3.85873 -3.85873 l -0.74236,-0.6383 c -1.17639,-1.0115 -2.9999,-0.71015 -3.59409,0.59394 -0.16878,0.37044 -0.29376,2.15905 -0.29376,4.20416 v 3.55943 h -1.19062 -1.19063 z m 11.82877,0.11669 0.0548,-5.32326 1.06966,-0.0519 1.06967,-0.0519 v 5.37512 5.37513 l -1.12448,1e-5 -1.12448,1e-5 z m -0.0791,-8.03822 c -0.40149,-0.61274 -0.40149,-0.71018 0,-1.32292 0.49832,-0.76054 1.49218,-0.8756 2.1221,-0.24568 0.52314,0.52314 0.52403,0.89941 0.004,1.64202 -0.55749,0.79592 -1.57951,0.76062 -2.126,-0.0734 z M 88.978878,106.94194 c 0,-13.31143 0.0262,-14.07991 0.536507,-15.73207 0.832427,-2.69512 2.815605,-5.08213 5.284297,-6.36034 2.47567,-1.28182 5.392898,-1.86025 10.398328,-2.06175 l 2.06398,-0.0831 0.003,4.10104 0.003,4.10105 -1.141,0.0732 c -4.64658,0.29797 -6.723838,1.05286 -7.759308,2.81977 l -0.65772,1.12231 v 13.00749 13.00748 h -4.36561 -4.365594 z m 20.637442,10.59077 v -3.40428 l 3.63802,-2.89177 c 8.20241,-6.51988 12.52184,-10.68267 14.03978,-13.53061 2.27496,-4.26826 0.87938,-8.62904 -2.87707,-8.98998 -3.07907,-0.29586 -6.05847,2.30623 -6.06801,5.29955 -0.001,0.4222 -0.38631,0.46302 -4.3671,0.46302 h -4.36562 l 0.004,-0.85989 c 0.007,-1.4893 0.7707,-4.18938 1.65635,-5.85434 1.6525,-3.10658 4.85475,-5.49558 8.34078,-6.22255 0.77115,-0.16081 2.73568,-0.29063 4.36562,-0.28847 4.95387,0.007 7.88811,1.02328 10.12133,3.50717 4.10707,4.56805 4.01012,11.53947 -0.24312,17.48264 -1.5208,2.12506 -5.91315,6.36164 -9.5152,9.17776 l -2.86512,2.23998 8.22293,0.0699 8.22293,0.0699 v 3.56811 3.5681 h -14.15521 -14.1552 z"
           style="display:inline;opacity:0.809;mix-blend-mode:normal;fill:#000000;fill-opacity:1;filter:url(#filter36-3)"
           id="path1-5-1-6" /></g></g></g></svg>
